<?xml version="1.0"?>
<svg xmlns="http://www.w3.org/2000/svg" version="1.2" baseProfile="tiny" width="32" height="32" viewBox="0 0 32 32" stroke-linecap="round" stroke-linejoin="round">
<g id="germany">
<path fill="#1f4e79" d="M 27.72 7.19 29.02 9.11 28.04 10.42 29.65 11.24 30 13.19 29.58 13.79 31 15.78 28.06 17.06 24.38 18.33 22.71 18.51 21.86 19.63 23.17 21.71 24.33 22.13 27.06 23.94 26.82 24.58 23.49 26.08 23.99 27.29 22.69 27.7 19.78 27.81 18.22 28.37 15.87 27.93 14.26 27.95 9.77 27.11 8.91 27.88 6.3 27.67 6.33 26.07 7.19 24.35 8.36 23.32 4.96 22.72 3.09 22.04 2.85 20.77 1.48 19.61 2.46 18.75 1 16.35 1.89 14.91 1.23 13.71 3.49 13.54 4.66 11.96 5.17 9.85 4.54 8.1 5.47 7.62 7.8 7.61 11.12 6.93 10.64 4.76 9.73 3.63 14.49 4.29 18.09 6.53 24.28 5.15 26.62 6.04 27.72 7.19 Z"/>
</g>
</svg>